<?xml version="1.0" encoding="UTF-8" standalone="no"?>
<!-- Created with Inkscape (http://www.inkscape.org/) -->

<svg
   width="137.38136mm"
   height="134.25717mm"
   viewBox="0 0 137.38136 134.25717"
   version="1.1"
   id="svg1"
   sodipodi:docname="icon2.svg"
   inkscape:version="1.3.2 (091e20e, 2023-11-25, custom)"
   xml:space="preserve"
   xmlns:inkscape="http://www.inkscape.org/namespaces/inkscape"
   xmlns:sodipodi="http://sodipodi.sourceforge.net/DTD/sodipodi-0.dtd"
   xmlns="http://www.w3.org/2000/svg"
   xmlns:svg="http://www.w3.org/2000/svg"><sodipodi:namedview
     id="namedview1"
     pagecolor="#ffffff"
     bordercolor="#000000"
     borderopacity="0.25"
     inkscape:showpageshadow="2"
     inkscape:pageopacity="0.0"
     inkscape:pagecheckerboard="0"
     inkscape:deskcolor="#d1d1d1"
     inkscape:document-units="mm"
     inkscape:zoom="0.89618505"
     inkscape:cx="454.14728"
     inkscape:cy="406.16611"
     inkscape:window-width="3210"
     inkscape:window-height="1689"
     inkscape:window-x="37"
     inkscape:window-y="102"
     inkscape:window-maximized="0"
     inkscape:current-layer="svg1" /><defs
     id="defs1"><inkscape:perspective
       sodipodi:type="inkscape:persp3d"
       inkscape:vp_x="-59.540927 : 69.306347 : 1"
       inkscape:vp_y="0 : 1102.1324 : 0"
       inkscape:vp_z="228.73243 : 69.306347 : 1"
       inkscape:persp3d-origin="84.595753 : 44.644818 : 1"
       id="perspective2" /><pattern
       id="EMFhbasepattern"
       patternUnits="userSpaceOnUse"
       width="6"
       height="6"
       x="0"
       y="0" /></defs><g
     id="g2"
     transform="matrix(0.6119555,0,0,0.68854745,-187.53262,-141.47505)"
     style="stroke-width:1.47405"><polygon
       class="st1"
       points="550.9,404.7 290.2,404.7 417.2,191.2 "
       id="polygon1"
       style="fill:#e30613;stroke-width:1.47405" /><path
       class="st2"
       d="M 556.3,407.7 H 284.9 L 417.2,185.4 Z m -260.9,-6 h 250 L 417.2,197 Z"
       id="path1"
       style="fill:#004082;stroke-width:1.47405" /></g><polygon
     class="st2"
     points="417,218.1 527.2,390.7 315.2,390.7 "
     id="polygon2"
     style="fill:#004082;stroke-width:1.5796"
     transform="matrix(0.55978191,0,0,0.65852739,-165.73034,-128.15396)" /><path
     class="st3"
     d="m 38.487339,112.61274 3.806515,7.14488 c 0,0 0.559783,0.78659 -0.55978,1.63874 0,0 -1.455435,1.63873 1.007608,1.63873 h 4.98206 c 0,0 2.015214,-0.13112 0.391845,-2.29424 0,0 -1.175541,-1.17987 0.559782,-2.35976 l 1.175541,-0.52439 c 0,0 2.407065,-0.65551 -0.391846,-3.86742 l -1.399454,-2.29422 c 0,0 -1.567392,-0.98324 1.175543,-2.94973 0,0 8.844553,-9.701297 11.811397,-11.340028 0,0 7.780968,-0.196639 10.523901,-5.964988 0,0 0.951631,-0.524394 1.455431,0.196627 0,0 1.399457,1.507647 2.686953,1.376537 0,0 3.302713,1.376537 3.022823,4.195166 0,0 0.167923,1.835377 -0.727715,2.294229 0,0 -1.959238,2.032027 1.175541,2.032027 h 3.694564 c 0,0 0.839671,0.32775 1.847276,-2.949719 0,0 2.295108,-3.670772 0.559787,-4.45736 0,0 -0.559787,-3.146371 -2.015218,-4.129611 0,0 -0.167929,-5.702794 0.727716,-7.341526 0,0 1.399457,-3.146371 2.239127,-3.47412 0,0 5.709776,0.98324 7.948903,-4.457354 0,0 0.167923,-0.655491 -0.727715,0.45884 0,0 -3.134778,4.45736 -6.829337,3.015281 0,0 3.246733,-17.960526 -2.127172,-19.46816 0,0 -1.399457,-0.131116 -2.127173,1.835377 0,0 0,0.786588 -0.895651,0.458845 0,0 -0.27989,-0.5244 0,-1.114336 0,0 1.455432,-3.867415 -2.015217,-5.309495 0,0 -2.239128,-0.458853 -3.302714,0.655492 0,0 -1.959237,1.638737 0.167929,6.03054 0,0 1.119561,1.507634 -0.27989,2.359777 0,0 -1.287502,3.670766 -1.175547,7.538177 0,0 -0.727716,1.966473 -0.727716,2.621977 0,0 -4.254338,-1.507647 -4.702164,2.949714 0,0 0.27989,1.835389 -1.735327,2.032028 0,0 -2.015212,0.196639 -6.437492,6.489395 0,0 -3.806514,2.621971 -4.870101,5.637245 0,0 -1.455437,2.359778 -2.239127,3.146366 0,0 -0.895651,1.11433 -1.119567,2.687519 0,0 0.167948,1.310995 -2.015218,0.983246 0,0 -1.119561,-0.196639 -0.167941,-1.966486 0,0 0.83967,-1.507634 0.951625,-2.621964 0,0 1.119567,-0.458852 1.455437,-3.670772 0,0 1.007606,-5.833892 -1.119566,-6.030543 0,0 0.89565,-4.850645 -2.295104,-5.309497 0,0 -1.679346,0 -2.574998,1.835389 0,0 -0.391846,0.327749 -0.671738,-0.327755 0,0 -0.167924,-0.589943 0.167924,-0.917685 0,0 1.959238,-4.588457 -1.343476,-5.506149 0,0 -3.358692,-1.310982 -4.478256,1.769835 0,0 -0.839673,2.294222 0.111956,4.45736 0,0 1.175543,1.048788 1.175543,1.179885 0,0.13111 0.671737,1.835377 -0.671738,3.015268 0,0 -1.175542,0.983234 -0.727716,6.030543 0,0 0.559781,9.176908 -1.735324,11.602233 l -2.686955,3.21191 c 0,0 -1.287497,1.70428 0.279893,4.52291 l 1.511408,2.81861 c 0,0 -9.684224,6.81713 -15.170086,7.34154 0,0 0.111967,0.5244 0.951629,0.45884 0,0 4.758144,-0.58995 14.554327,-7.21042 z"
     id="path2"
     style="fill:#fdc300;stroke-width:0.956842" /><path
     class="st2"
     d="m 71.148714,89.343866 c 0,0 -2.295107,6.16164 -9.796185,6.292737 l 9.516295,-9.701302 c 0,0 1.175541,-0.655492 0.951625,1.638737 0,0 -0.167922,0.983234 -0.671735,1.835377 z"
     id="path3"
     style="fill:#004082;stroke-width:0.956842" /><path
     class="st0"
     d="M 120.4655,125.396 95.49923,78.397124 c 0,0 -2.351088,4.981748 -2.798913,8.718062 0,0 -1.287496,7.013783 -3.190759,8.521417 0,0 -3.638578,0.262194 -9.628244,6.489387 0,0 -7.669013,0.98324 -9.180425,3.73631 0,0 -5.765757,1.24544 -7.669013,5.24395 0,0 -3.862494,4.52291 -6.213577,5.24394 0,0 -5.989673,2.49088 -7.669017,4.98175 0,0 -1.679346,2.49088 -3.638582,2.75308 0,0 -3.470647,-0.0656 -3.918474,1.44208 l 78.817294,-0.13111 z"
     id="path4"
     style="fill:#ffffff;stroke-width:0.956842" /></svg>
